{"glyphs":{":":{"x_min":0,"x_max":246,"ha":246,"o":"m 16 -8 l 16 729 l 228 729 l 228 -8 z m 20 724 l 20 -4 l 224 -4 l 224 724 z m 18 363 l 18 359 l 227 359 l 227 363 z m 45 378 l 45 703 l 205 703 l 205 378 z m 45 18 l 45 343 l 205 343 l 205 18 z"},"$":{"x_min":0,"x_max":383,"ha":383,"o":"m 254 704 q 265 694 271 687 q 290 665 293 644 l 307 572 l 219 572 l 214 629 q 214 652 189 652 q 176 652 172 644 q 167 637 167 630 q 167 624 170 621 q 170 620 322 478 q 372 431 372 401 l 372 284 q 372 263 372 253 q 372 225 367 208 q 362 191 344 174 q 327 157 306 150 q 286 144 256 144 l 214 144 l 214 77 l 133 77 l 133 144 l 14 144 l 14 402 l 75 402 q 85 402 94 408 q 102 413 106 421 q 110 429 110 437 q 110 447 104 459 l 57 563 q 52 573 49 588 q 46 603 46 613 q 46 650 71 683 q 96 716 135 726 l 135 787 l 212 787 l 212 726 q 226 722 237 716 q 248 710 254 704 z m 252 700 q 247 706 235 713 q 223 720 210 722 l 209 783 l 138 783 l 138 724 q 97 712 73 680 q 49 647 49 614 q 49 592 61 565 l 108 461 q 114 443 114 435 q 114 427 111 421 q 97 397 75 397 l 18 397 l 18 148 l 137 148 l 137 81 l 211 81 l 211 148 l 256 148 q 286 148 304 154 q 323 159 341 176 q 359 192 364 210 q 368 227 368 253 q 368 273 368 284 l 368 401 q 368 437 256 531 q 189 587 167 619 q 163 623 163 631 q 163 656 189 656 q 219 656 219 629 l 223 575 l 304 575 l 289 644 q 287 665 270 684 q 265 690 252 700 z m 197 711 q 208 711 223 704 q 232 700 243 692 q 254 683 262 672 q 276 653 278 631 l 283 585 l 229 585 l 227 614 q 227 631 222 642 q 213 662 189 662 q 156 662 156 629 q 156 619 162 606 q 167 594 297 478 q 351 430 351 406 l 351 292 q 351 271 351 262 q 351 235 346 222 q 342 208 332 197 q 305 164 259 164 l 197 164 l 197 96 l 152 96 l 152 164 l 36 164 l 36 389 l 82 389 q 92 389 103 392 q 114 396 121 405 q 128 414 128 430 q 128 439 126 448 q 123 456 121 461 l 78 555 q 66 582 66 607 q 66 640 88 671 q 98 686 113 697 q 134 712 153 712 l 153 768 l 197 768 z"},"?":{"x_min":0,"x_max":354,"ha":354,"o":"m 50 534 l 185 658 q 196 668 196 691 q 196 732 151 732 q 133 732 122 716 q 111 699 111 671 l 111 636 l 52 636 l 56 691 q 56 723 85 751 q 119 784 174 784 q 227 784 262 748 q 298 713 298 667 q 298 647 291 632 l 245 520 l 245 466 l 45 466 q 41 469 38 472 q 30 480 30 498 q 30 516 50 534 z m 13 -2 l 13 447 l 312 447 l 312 -2 z m 52 446 l 50 442 q 14 457 14 500 q 14 516 21 528 q 28 539 42 552 l 169 664 q 175 670 177 674 q 180 680 180 689 q 180 702 176 708 q 171 714 154 714 q 141 714 134 705 q 127 696 127 685 l 124 621 l 35 621 l 42 700 q 42 739 77 768 q 116 800 175 800 q 245 800 283 754 q 314 716 314 665 q 314 645 308 630 l 261 519 l 261 445 l 257 445 l 257 519 l 304 632 q 310 646 310 667 q 310 715 280 751 q 242 796 175 796 q 118 796 84 768 q 49 739 46 700 l 39 625 l 120 625 l 123 685 q 123 718 154 718 q 171 718 178 710 q 184 702 184 689 q 184 673 171 661 l 44 549 q 30 537 24 526 q 18 516 18 500 q 18 461 52 446 z m 17 443 l 17 2 l 308 2 l 308 443 z m 32 20 l 32 427 l 294 427 l 294 20 z"},"L":{"x_min":0,"x_max":330,"ha":330,"o":"m 202 445 l 281 445 l 281 -3 l 11 -3 l 11 802 l 202 802 z m 277 441 l 198 441 l 198 798 l 15 798 l 15 1 l 277 1 z m 185 784 l 185 425 l 260 425 l 260 17 l 27 17 l 27 784 z"},"3":{"x_min":0,"x_max":444,"ha":444,"o":"m 160 476 q 163 498 150 510 q 137 521 119 521 l 62 521 l 62 616 l 206 716 l 23 716 l 23 801 l 376 801 l 376 724 l 243 612 q 253 610 280 602 q 306 594 332 574 q 358 554 378 522 q 398 489 398 458 l 398 165 q 398 153 398 147 q 398 108 394 85 q 390 62 376 43 q 363 24 346 14 q 318 -3 282 -3 l 7 -3 l 7 443 l 95 443 q 127 443 136 446 q 157 453 160 476 z m 164 472 q 164 449 146 444 q 127 439 95 439 l 11 439 l 11 1 l 282 1 q 310 1 332 10 q 354 20 370 42 q 386 63 390 91 q 394 119 394 165 l 394 458 q 394 487 374 520 q 354 552 332 569 q 309 586 251 603 q 246 609 241 616 l 372 725 l 372 797 l 27 797 l 27 720 l 220 720 l 66 615 l 66 525 l 119 525 q 138 525 151 512 q 164 499 164 472 z m 175 476 q 175 500 162 518 q 148 537 126 537 l 76 537 l 76 606 l 254 731 l 41 731 l 41 785 l 358 785 l 358 728 l 226 619 q 217 611 217 607 q 217 603 236 598 q 290 583 323 559 q 347 541 362 520 q 378 499 378 473 l 378 165 q 378 154 378 149 q 378 113 374 92 q 371 71 357 52 q 343 33 322 24 q 301 14 275 14 l 26 14 l 26 425 l 108 425 q 135 425 155 438 q 175 452 175 476 z"},";":{"x_min":0,"x_max":252,"ha":252,"o":"m 3 -4 l 3 801 l 212 801 l 212 22 q 203 0 192 -16 q 181 -31 162 -51 q 144 -71 128 -83 q 112 -95 88 -106 l 85 -108 l 85 -2 z m 7 797 l 7 0 l 89 2 l 89 -102 q 130 -82 159 -49 q 177 -29 188 -14 q 198 1 207 23 l 207 797 z m 7 438 l 7 434 l 210 434 l 210 438 z m 30 16 l 30 419 l 185 419 l 185 18 q 178 4 173 -4 q 168 -11 155 -27 q 136 -51 108 -72 l 108 16 z m 30 452 l 30 781 l 186 781 l 186 452 z"},"J":{"x_min":0,"x_max":480,"ha":480,"o":"m 249 526 l 249 801 l 434 801 l 434 150 q 434 127 434 117 q 434 86 429 68 q 424 49 407 31 q 390 13 366 5 q 343 -3 316 -3 l 139 -3 q 102 -3 80 2 q 57 7 37 27 q 4 57 4 101 l 4 570 l 97 570 l 97 515 q 97 488 114 465 q 135 437 170 437 q 213 437 233 464 q 249 486 249 526 z m 253 797 l 253 526 q 253 486 236 462 q 215 433 170 433 q 132 433 112 460 q 93 486 93 515 l 93 566 l 8 566 l 8 101 q 8 60 39 29 q 59 11 80 6 q 102 1 139 1 l 316 1 q 345 1 366 8 q 386 15 404 32 q 421 50 426 69 q 430 88 430 117 q 430 138 430 150 l 430 797 z m 266 518 l 266 780 l 416 780 l 416 159 q 416 146 416 134 q 416 122 417 111 q 417 90 414 76 q 410 62 398 47 q 383 28 363 22 q 343 15 312 15 l 143 15 q 133 15 129 15 q 100 15 81 20 q 62 25 47 42 q 22 70 22 112 l 22 554 l 79 554 l 79 503 q 79 476 101 450 q 128 418 172 418 q 216 418 241 447 q 266 476 266 518 z"},"V":{"x_min":0,"x_max":432,"ha":432,"o":"m 238 549 l 270 802 l 405 802 l 302 -3 l 111 -3 l 11 802 l 206 802 z m 274 798 l 238 517 l 202 798 l 15 798 l 115 1 l 298 1 l 401 798 z m 191 784 l 238 433 l 286 783 l 386 783 l 287 14 l 126 14 l 33 784 z"},"7":{"x_min":0,"x_max":402,"ha":402,"o":"m 181 711 l 10 711 l 10 802 l 384 802 l 384 752 l 193 -2 l 0 -2 z m 14 715 l 186 715 l 5 2 l 191 2 l 380 752 l 380 798 l 14 798 z m 367 753 l 179 13 l 22 13 l 199 717 l 199 729 l 27 729 l 27 783 l 367 783 z"},"S":{"x_min":0,"x_max":426,"ha":426,"o":"m 174 682 q 198 646 268 586 q 391 481 391 440 l 391 150 q 391 95 383 74 q 375 52 357 34 q 321 -3 267 -3 l 7 -3 l 7 441 l 72 441 q 96 441 106 464 q 109 472 109 479 q 109 490 103 504 l 43 631 q 37 645 37 664 q 37 715 70 754 q 111 802 182 802 q 230 802 264 778 q 299 755 307 707 l 321 628 l 226 628 l 222 692 q 222 716 195 716 q 183 716 177 709 q 171 702 171 693 q 171 687 174 682 z m 170 680 q 166 685 166 693 q 166 704 174 712 q 181 720 195 720 q 226 720 226 692 l 230 632 l 317 632 l 303 707 q 295 752 262 775 q 228 798 182 798 q 114 798 74 751 q 41 712 41 663 q 41 645 47 633 l 107 506 q 113 492 113 479 q 113 471 110 462 q 97 437 72 437 l 11 437 l 11 1 l 267 1 q 319 1 355 36 q 375 57 381 83 q 387 109 387 150 l 387 440 q 387 472 335 522 q 171 679 170 680 z m 157 678 q 166 658 311 523 q 372 466 372 441 l 372 162 q 372 142 372 132 q 372 107 368 90 q 365 73 351 57 q 320 20 269 20 l 26 20 l 26 422 l 77 422 q 87 422 100 426 q 112 431 120 440 q 128 450 128 468 q 128 484 120 502 l 66 620 q 57 641 57 663 q 57 710 91 747 q 125 784 177 784 q 231 784 264 752 q 291 725 295 691 l 300 643 l 240 643 l 238 678 q 238 699 233 710 q 223 732 196 732 q 177 732 165 721 q 153 710 153 695 q 153 690 157 678 z"},"Z":{"x_min":0,"x_max":360,"ha":360,"o":"m 112 707 l 26 707 l 26 802 l 309 802 l 309 714 l 205 437 l 309 437 l 309 -3 l 2 -3 l 2 424 z m 30 711 l 118 711 l 6 423 l 6 1 l 305 1 l 305 433 l 199 433 l 305 715 l 305 798 l 30 798 z m 41 725 l 41 783 l 292 783 l 292 718 l 180 420 l 292 420 l 292 16 l 20 16 l 20 422 l 134 713 l 134 725 z"},")":{"x_min":0,"x_max":264,"ha":264,"o":"m 0 800 q 44 800 77 776 q 110 753 118 711 l 240 62 q 245 34 245 15 q 245 -2 241 -16 q 237 -30 225 -45 q 206 -70 180 -81 q 155 -92 122 -92 l 0 -92 l 0 349 q 15 349 27 354 q 39 360 48 368 q 56 377 58 388 q 60 398 60 408 q 60 418 60 423 l 29 685 q 29 690 26 697 q 25 700 20 708 q 15 717 1 724 z m 4 796 l 4 728 q 14 723 22 710 q 31 698 32 696 q 34 691 34 685 l 65 423 q 65 413 65 408 q 65 390 62 382 q 59 375 51 367 q 31 345 4 345 l 4 -88 l 122 -88 q 155 -88 179 -78 q 203 -67 221 -43 q 231 -30 236 -14 q 241 3 241 18 q 241 35 236 62 l 113 711 q 106 750 74 773 q 41 796 4 796 z m 26 728 l 26 777 q 60 772 83 743 q 100 722 104 696 l 218 78 q 221 61 223 48 q 225 36 225 23 q 225 8 222 -1 q 220 -10 211 -24 q 195 -47 172 -56 q 150 -64 118 -64 l 26 -64 l 26 337 q 39 337 48 342 q 58 347 69 358 q 84 373 84 397 q 84 407 83 412 l 54 688 q 54 697 46 710 q 37 722 26 728 z"},"&":{"x_min":0,"x_max":460,"ha":460,"o":"m 166 502 q 166 477 185 458 q 204 439 230 439 q 254 439 274 455 q 294 471 294 491 l 294 503 l 252 503 l 252 561 l 422 561 l 422 501 l 365 501 l 370 481 l 423 149 q 426 128 426 109 q 426 88 422 71 q 418 54 406 39 q 395 24 375 13 q 347 -2 311 -2 l 110 -2 q 75 -2 50 14 q 36 23 23 41 q 1 70 1 114 q 1 129 4 147 l 79 546 q 79 558 84 570 q 86 574 93 586 q 100 599 112 611 q 123 623 125 625 q 119 631 116 638 q 107 659 107 697 q 107 735 131 764 q 162 801 218 801 q 276 801 306 767 q 336 733 336 673 l 248 671 q 251 688 244 702 q 236 715 222 715 q 210 715 202 706 q 194 697 194 685 q 194 673 202 664 q 210 655 223 655 l 282 655 l 282 574 l 223 574 q 198 574 182 552 q 166 529 166 502 z m 162 502 q 162 530 178 554 q 195 578 223 578 l 278 578 l 278 651 l 223 651 q 210 651 200 661 q 190 671 190 685 q 190 699 199 709 q 208 719 222 719 q 237 719 246 705 q 255 691 252 675 l 332 676 q 332 733 303 765 q 274 797 218 797 q 163 797 134 762 q 111 734 111 697 q 111 661 120 642 q 124 633 129 625 q 121 617 117 613 q 104 599 98 588 q 93 578 88 566 q 83 555 83 546 l 8 147 q 5 129 5 113 q 5 74 27 43 q 39 27 52 18 q 76 2 110 2 l 311 2 q 346 2 369 14 q 392 27 402 41 q 422 68 422 111 q 422 129 419 149 l 366 481 l 361 505 l 418 505 l 418 557 l 256 557 l 256 507 l 298 507 l 298 491 q 298 469 277 452 q 256 435 230 435 q 203 435 182 454 q 162 474 162 502 z m 385 49 q 370 32 350 24 q 329 17 305 17 l 122 17 q 91 17 67 32 q 50 43 41 56 q 32 69 28 86 q 24 104 24 123 q 24 133 25 143 q 25 144 28 163 l 98 543 q 102 564 115 586 q 122 599 133 610 q 144 621 144 624 q 137 632 132 648 q 126 663 126 690 q 126 729 152 754 q 179 780 220 780 q 265 780 290 754 q 316 727 316 688 l 266 688 q 266 705 252 717 q 238 729 219 729 q 202 727 191 716 q 180 705 180 688 q 180 640 227 640 l 266 640 l 266 590 l 216 590 q 185 590 166 564 q 147 539 147 504 q 147 471 172 446 q 196 422 229 422 q 270 422 294 451 q 313 474 313 494 l 313 517 l 269 517 l 269 545 l 407 545 l 407 517 l 350 517 l 350 497 l 405 131 q 407 115 407 108 q 407 75 385 49 z"},"O":{"x_min":0,"x_max":462,"ha":462,"o":"m 328 727 l 423 153 q 425 137 425 128 q 425 103 418 80 q 411 58 400 42 q 388 26 371 15 q 344 -2 312 -2 l 117 -2 q 84 -2 59 14 q 41 25 29 42 q 8 74 8 123 q 8 138 11 153 l 112 730 q 117 763 149 782 q 181 801 225 801 q 269 801 296 780 q 323 759 328 727 z m 324 727 q 319 757 294 777 q 268 797 225 797 q 181 797 151 779 q 121 761 116 730 l 15 153 q 12 136 12 122 q 12 73 33 44 q 45 24 69 13 q 93 2 117 2 l 312 2 q 344 2 366 16 q 387 29 398 45 q 408 61 414 82 q 421 104 421 129 q 421 135 421 141 q 419 149 419 153 z m 314 711 l 404 165 q 407 144 407 125 q 407 103 404 88 q 400 72 392 59 q 383 46 366 35 q 341 19 310 19 l 125 19 q 94 19 70 34 q 53 45 44 58 q 35 71 31 88 q 27 106 27 125 q 27 135 28 145 q 28 146 31 165 l 128 714 q 139 781 222 781 q 262 781 286 761 q 309 741 314 711 z m 274 484 l 260 672 q 260 708 250 720 q 241 731 220 731 q 196 731 188 716 q 180 701 180 676 l 162 484 q 160 458 175 440 q 190 422 221 422 q 252 422 265 446 q 274 462 274 484 z m 262 489 q 262 459 252 446 q 242 433 220 433 q 193 433 184 448 q 174 464 174 489 l 188 669 q 188 691 194 706 q 199 721 220 721 q 241 721 246 706 q 251 692 251 667 z m 258 489 l 247 667 q 247 692 243 704 q 239 717 220 717 q 202 717 197 704 q 192 690 192 669 l 178 489 q 178 456 188 446 q 199 437 220 437 q 240 437 249 448 q 258 460 258 489 z"},"(":{"x_min":0,"x_max":264,"ha":264,"o":"m 250 800 l 253 727 l 251 725 q 237 718 233 711 q 222 696 222 687 l 190 430 q 189 424 189 414 q 189 402 192 394 q 196 387 203 379 q 213 371 226 364 q 238 358 250 358 l 253 -92 l 127 -92 q 90 -92 66 -82 q 42 -71 21 -45 q 11 -32 6 -16 q 0 0 0 16 q 0 24 2 38 q 4 53 6 61 l 131 713 q 139 753 174 776 q 208 800 250 800 z m 248 796 q 209 796 176 774 q 143 751 136 713 l 10 61 q 8 48 6 36 q 4 25 4 16 q 4 -2 8 -14 q 12 -26 25 -43 q 61 -87 127 -87 l 248 -87 l 248 354 q 234 354 222 360 q 210 365 200 375 q 190 385 187 394 q 184 402 184 415 q 185 425 185 430 l 218 687 q 219 700 228 712 q 238 723 248 729 z m 227 781 l 227 734 q 216 728 210 720 q 204 711 202 707 q 199 701 199 694 l 170 418 q 169 413 169 402 q 169 391 172 382 q 175 373 184 364 q 194 354 204 348 q 214 343 227 343 l 227 -66 l 135 -66 q 101 -66 79 -60 q 57 -54 42 -34 q 27 -15 27 12 q 27 27 30 42 q 33 58 35 68 l 149 702 q 153 728 170 749 q 192 777 227 781 z"},"C":{"x_min":0,"x_max":462,"ha":462,"o":"m 211 714 q 196 714 188 703 q 181 692 181 675 l 171 516 q 171 495 174 482 q 176 470 186 458 q 195 446 214 440 q 233 435 246 435 l 421 435 l 421 -4 l 110 -4 q 55 -4 22 36 q 10 50 5 67 q 0 84 0 103 q 0 122 5 150 l 104 723 q 111 763 148 784 q 177 800 213 800 q 257 800 288 774 q 318 749 325 702 l 342 585 l 247 585 l 239 688 q 239 714 211 714 z m 211 718 q 227 718 235 710 q 243 702 243 688 l 251 589 l 338 589 l 321 702 q 314 748 286 772 q 257 796 213 796 q 177 796 150 781 q 115 762 108 723 l 9 150 q 4 122 4 102 q 4 66 26 38 q 57 0 110 0 l 417 0 l 417 431 l 246 431 q 229 431 212 436 q 194 441 183 455 q 172 469 170 489 q 167 509 167 516 l 177 675 q 177 693 185 706 q 193 718 211 718 z m 254 674 q 254 699 246 712 q 235 730 209 730 q 192 730 181 719 q 170 708 170 692 l 156 504 q 156 467 182 442 q 194 431 214 425 q 233 419 244 419 l 402 419 l 402 14 l 118 14 q 65 14 36 51 q 25 64 21 78 q 17 91 17 109 q 17 123 18 133 q 20 143 22 156 l 118 709 q 129 781 216 781 q 252 781 278 762 q 303 742 308 708 l 326 595 l 262 595 z"},"W":{"x_min":0,"x_max":635,"ha":635,"o":"m 281 -2 l 104 -2 l -2 801 l 190 801 l 222 554 l 253 801 l 423 801 l 453 555 l 485 801 l 620 801 l 510 -2 l 333 -2 l 306 212 z m 108 2 l 277 2 l 306 244 l 337 2 l 506 2 l 616 797 l 489 797 l 453 523 l 419 797 l 257 797 l 222 524 l 186 797 l 2 797 z m 122 17 l 18 783 l 172 783 l 221 452 l 271 783 l 406 783 l 452 458 l 502 783 l 598 783 l 493 17 l 352 17 l 306 312 l 263 17 z"},"A":{"x_min":0,"x_max":464,"ha":464,"o":"m 5 -2 l 117 803 l 309 803 l 417 -2 l 236 -2 l 214 266 l 151 266 l 112 -2 z m 121 799 l 9 2 l 108 2 l 147 270 l 218 270 l 240 2 l 413 2 l 305 799 z m 20 12 l 129 789 l 299 789 l 402 12 l 248 12 l 223 278 l 142 278 l 98 12 z m 203 706 l 161 444 l 238 444 z m 230 452 l 170 452 l 203 664 z m 174 456 l 226 456 l 203 636 z"},"Q":{"x_min":0,"x_max":444,"ha":444,"o":"m 319 727 l 414 153 q 417 135 417 117 q 417 65 395 37 q 383 22 354 8 q 346 1 338 -6 q 343 -10 345 -13 q 354 -22 357 -29 q 360 -36 362 -46 q 364 -55 364 -72 l 187 -74 q 187 -61 182 -50 q 178 -39 168 -28 q 159 -16 150 -10 q 141 -3 127 -3 l 108 -2 q 74 -2 48 13 q 29 24 17 41 q -1 68 -1 116 q -1 133 2 153 l 99 730 q 104 763 136 782 q 167 801 216 801 q 260 801 287 780 q 314 759 319 727 z m 315 727 q 310 757 284 777 q 259 797 216 797 q 168 797 138 779 q 108 761 103 730 l 6 153 q 3 133 3 116 q 3 69 21 43 q 29 30 50 18 q 78 2 108 2 l 127 1 q 141 1 152 -6 q 163 -14 172 -26 q 182 -38 186 -48 q 191 -57 191 -70 l 360 -69 q 360 -49 359 -44 q 358 -40 353 -31 q 353 -26 344 -17 q 341 -14 335 -8 q 331 0 361 16 q 381 26 391 38 q 401 51 407 73 q 413 95 413 118 q 413 135 410 153 z m 304 711 l 394 166 q 396 150 398 134 q 400 118 400 106 q 400 88 398 78 q 395 67 386 55 q 367 28 326 12 q 309 5 309 1 q 309 -1 314 -6 q 319 -10 322 -12 q 330 -19 335 -26 q 347 -45 347 -60 l 201 -60 q 197 -29 173 -8 q 160 3 151 8 q 142 13 128 13 l 115 13 q 79 13 59 27 q 50 33 29 59 q 16 75 16 111 q 16 126 17 136 q 18 146 21 166 l 114 714 q 119 747 144 764 q 170 781 212 781 q 252 781 276 761 q 299 741 304 711 z m 265 477 l 250 672 q 250 699 243 712 q 233 731 207 731 q 183 731 174 716 q 166 702 166 676 l 152 477 q 152 450 166 432 q 180 415 211 415 q 241 415 255 439 q 265 456 265 477 z m 250 485 q 250 455 240 442 q 230 429 208 429 q 181 429 172 444 q 162 460 162 485 l 176 669 q 176 691 182 706 q 187 721 208 721 q 229 721 234 706 q 239 692 239 667 z m 246 485 l 235 667 q 235 692 231 704 q 227 717 208 717 q 190 717 185 704 q 180 690 180 669 l 166 485 q 166 452 176 442 q 187 433 208 433 q 228 433 237 444 q 246 456 246 485 z"},"-":{"x_min":0,"x_max":258,"ha":258,"o":"m 22 327 l 21 404 l 236 405 l 237 328 z m 23 329 l 235 329 l 235 403 l 23 403 z m 24 339 l 24 391 l 214 391 l 214 339 z m 233 332 l 26 331 l 25 400 l 232 401 z m 231 333 l 231 399 l 27 399 l 27 333 z"},"E":{"x_min":0,"x_max":312,"ha":312,"o":"m 4 -2 l 4 800 l 251 800 l 251 712 l 188 712 l 188 633 l 241 633 l 241 546 l 188 546 l 188 438 l 265 438 l 265 -2 z m 8 796 l 8 2 l 261 2 l 261 434 l 184 434 l 184 550 l 237 550 l 237 629 l 184 629 l 184 716 l 247 716 l 247 796 z m 20 15 l 20 782 l 235 782 l 235 727 l 170 727 l 170 615 l 222 615 l 222 561 l 170 561 l 170 421 l 247 421 l 247 15 z"},"8":{"x_min":0,"x_max":444,"ha":444,"o":"m 110 -4 q 75 -4 50 13 q 36 22 23 41 q 1 70 1 114 q 1 129 4 147 l 69 506 q 72 526 74 533 q 80 556 97 570 q 130 601 144 601 q 125 609 113 636 q 101 664 101 699 q 101 736 127 765 q 159 801 218 801 q 272 801 304 765 q 331 735 331 699 q 331 662 318 636 q 306 610 284 598 q 290 598 302 591 q 313 584 328 568 q 343 553 352 540 q 360 526 360 508 l 414 146 q 417 125 417 105 q 417 86 413 71 q 409 56 398 41 q 381 18 360 7 q 338 -4 311 -4 z m 110 0 l 311 0 q 345 0 368 16 q 381 25 394 43 q 413 69 413 107 q 413 125 410 146 l 356 508 q 356 536 324 568 q 307 584 291 591 q 286 593 277 595 q 297 607 312 632 q 327 658 327 699 q 327 733 301 762 q 270 797 218 797 q 162 797 131 763 q 105 734 105 699 q 105 658 119 633 q 134 616 150 600 q 137 594 128 589 q 113 580 100 568 q 87 557 82 543 q 77 529 73 506 l 8 147 q 5 129 5 113 q 5 74 27 43 q 44 20 64 10 q 83 0 110 0 z m 299 14 l 117 14 q 84 14 61 30 q 48 39 35 57 q 26 69 22 84 q 18 99 18 116 q 18 127 20 142 q 22 158 24 169 l 86 515 q 89 534 96 546 q 104 557 118 569 q 133 581 150 587 q 167 593 167 596 q 147 608 131 632 q 115 657 115 692 q 115 727 137 753 q 165 787 217 787 q 265 787 292 753 q 315 724 315 690 q 315 656 297 630 q 277 612 258 594 q 268 589 280 584 q 293 579 310 564 q 326 550 332 537 q 338 524 339 512 l 392 169 q 397 137 397 114 q 397 96 394 82 q 390 69 380 55 q 370 41 355 31 q 330 14 299 14 z m 216 540 q 191 540 172 524 q 154 507 154 482 q 154 456 170 438 q 187 421 212 421 q 237 421 256 438 q 274 454 274 478 q 274 503 258 522 q 241 540 216 540 z m 212 731 q 195 731 182 717 q 169 703 169 685 q 169 667 183 655 q 197 643 215 643 q 233 643 245 656 q 257 669 257 687 q 257 705 244 718 q 231 731 212 731 z m 214 525 q 233 525 246 511 q 259 497 259 478 q 259 460 246 447 q 233 434 214 434 q 197 434 183 447 q 169 460 169 478 q 169 497 182 511 q 195 525 214 525 z m 213 719 q 227 719 237 710 q 247 701 247 687 q 247 674 238 664 q 229 654 215 654 q 200 654 190 662 q 181 671 181 685 q 181 699 190 709 q 199 719 213 719 z m 214 521 q 197 521 185 508 q 173 495 173 478 q 173 462 185 450 q 197 438 214 438 q 231 438 243 449 q 255 460 255 478 q 255 495 243 508 q 231 521 214 521 z m 213 715 q 201 715 193 706 q 185 697 185 685 q 185 674 194 666 q 203 658 215 658 q 225 658 231 662 q 243 670 243 687 q 243 699 234 707 q 225 715 213 715 z"},"%":{"x_min":0,"x_max":828,"ha":828,"o":"m 540 801 l 630 802 l 312 -1 l 219 -2 z m 344 413 q 347 398 347 383 q 347 334 325 302 q 313 285 295 274 q 269 258 235 258 l 106 258 q 73 258 48 274 q 30 285 18 302 q 0 329 0 374 q 0 383 1 392 q 1 395 4 411 l 67 730 q 72 762 103 782 q 134 801 180 801 q 224 801 250 780 q 277 759 283 727 z m 784 153 q 787 136 787 119 q 787 74 767 42 q 755 25 737 14 q 711 -2 677 -2 l 548 -2 q 515 -2 490 14 q 472 25 460 42 q 443 68 443 114 q 443 131 446 151 l 503 462 q 508 495 540 517 q 571 539 616 539 q 650 539 684 517 q 719 495 725 461 z m 544 798 l 225 2 l 308 2 l 624 798 z m 340 413 l 279 727 q 273 758 250 776 q 223 797 180 797 q 138 797 107 778 q 76 759 71 730 l 8 411 q 4 394 4 372 q 4 328 22 304 q 34 284 58 273 q 82 262 106 262 l 235 262 q 268 262 293 277 q 310 287 321 304 q 343 336 343 384 q 343 398 340 413 z m 780 153 l 721 461 q 716 492 682 514 q 648 535 616 535 q 575 535 544 514 q 512 492 507 462 l 450 151 q 447 131 447 112 q 447 67 464 44 q 476 24 500 13 q 524 2 548 2 l 677 2 q 710 2 735 17 q 752 27 763 44 q 783 72 783 122 q 783 136 780 153 z m 268 711 l 322 419 q 323 408 324 399 q 326 390 326 378 q 326 337 310 314 q 301 300 284 289 q 259 273 228 273 l 119 273 q 88 273 64 288 q 47 299 38 312 q 29 325 25 342 q 21 360 21 379 q 21 389 22 399 q 22 400 25 419 l 82 714 q 94 781 176 781 q 216 781 240 761 q 263 741 268 711 z m 708 449 l 758 161 q 760 150 761 136 q 762 123 762 111 q 762 86 760 77 q 757 68 749 56 q 741 44 724 33 q 699 17 668 17 l 559 17 q 528 17 504 32 q 487 43 477 58 q 464 78 464 113 q 464 135 469 163 l 522 452 q 534 519 616 519 q 656 519 680 499 q 703 479 708 449 z m 246 17 l 550 785 l 604 785 l 300 17 z m 228 566 l 214 672 q 211 704 207 712 q 199 731 174 731 q 156 731 148 722 q 140 712 134 676 l 116 566 q 112 540 128 522 q 144 504 175 504 q 206 504 219 528 q 228 544 228 566 z m 668 310 l 654 416 q 651 448 647 456 q 639 475 614 475 q 590 475 582 461 q 575 447 572 420 l 556 310 q 553 285 568 266 q 584 248 615 248 q 646 248 659 272 q 668 288 668 310 z m 646 409 l 657 311 q 657 281 647 268 q 637 255 615 255 q 588 255 578 270 q 569 286 569 311 l 583 411 q 583 433 588 448 q 594 463 615 463 q 636 463 641 448 q 646 434 646 409 z m 206 667 l 217 569 q 217 539 207 526 q 197 513 175 513 q 148 513 138 528 q 129 544 129 569 l 143 669 q 143 691 148 706 q 154 721 175 721 q 196 721 201 706 q 206 692 206 667 z m 202 667 q 202 692 198 704 q 194 717 175 717 q 157 717 152 704 q 147 690 147 669 l 133 569 q 133 536 144 526 q 154 517 175 517 q 195 517 204 528 q 213 540 213 569 z m 642 409 q 642 434 638 446 q 634 459 615 459 q 597 459 592 446 q 587 432 587 411 l 573 311 q 573 278 584 268 q 594 259 615 259 q 635 259 644 270 q 653 282 653 311 z"},",":{"x_min":0,"x_max":228,"ha":228,"o":"m 8 -2 l 8 442 l 206 442 l 205 10 q 198 -4 188 -18 q 183 -25 166 -44 q 150 -63 136 -74 q 123 -85 98 -102 l 95 -104 l 95 -2 z m 12 438 l 12 2 l 99 2 l 99 -95 q 123 -81 134 -72 q 146 -62 164 -41 q 178 -24 184 -16 q 194 -2 201 11 l 202 438 z m 26 16 l 26 423 l 183 423 l 183 12 q 176 -3 171 -10 q 161 -23 155 -30 q 138 -53 111 -72 l 111 16 z"},"B":{"x_min":0,"x_max":468,"ha":468,"o":"m 9 -2 l 9 801 l 249 801 q 286 801 315 769 q 344 737 344 704 q 344 669 334 643 q 323 617 303 603 q 315 603 338 584 q 357 565 364 554 q 375 537 375 524 l 423 160 q 425 145 426 126 q 428 108 428 102 q 428 83 424 70 q 421 56 412 43 q 395 20 374 9 q 352 -2 325 -2 z m 13 797 l 13 2 l 325 2 q 359 2 382 18 q 395 27 410 46 q 424 66 424 103 q 424 120 422 132 q 421 145 419 160 l 371 524 q 371 540 356 560 q 346 574 336 580 q 318 595 310 597 q 302 599 296 599 q 314 613 327 638 q 340 664 340 704 q 340 734 313 764 q 283 797 249 797 z m 24 10 l 24 788 l 241 788 q 277 788 304 756 q 331 725 331 694 q 331 659 315 635 q 297 618 279 601 q 279 599 296 594 q 312 588 328 574 q 345 560 352 548 q 358 535 360 519 l 408 165 q 409 154 411 134 q 413 114 413 109 q 413 90 410 78 q 406 66 396 52 q 386 37 371 27 q 346 10 315 10 z m 213 551 l 185 551 l 185 422 l 214 422 q 237 422 254 440 q 270 457 270 485 q 270 515 253 533 q 236 551 213 551 z m 201 733 l 181 733 l 181 643 l 202 643 q 218 643 230 656 q 241 668 241 688 q 241 708 228 720 q 216 733 201 733 z m 185 729 l 203 729 q 216 729 226 718 q 237 706 237 688 q 237 670 228 658 q 220 647 206 647 l 185 647 z m 191 545 l 215 545 q 234 545 248 528 q 263 510 263 484 q 263 460 250 444 q 237 428 218 428 q 216 429 203 429 q 197 429 193 429 z m 195 541 l 196 433 q 199 434 209 434 q 215 434 221 434 q 223 434 226 433 q 237 437 242 442 q 259 458 259 484 q 259 508 246 524 q 232 541 215 541 z m 189 725 l 189 651 l 204 651 q 233 651 233 688 q 233 705 224 715 q 215 725 203 725 z"},"K":{"x_min":0,"x_max":516,"ha":516,"o":"m 10 -2 l 10 802 l 203 802 l 203 632 l 262 801 l 403 802 l 294 524 l 469 -1 l 253 -1 l 205 183 l 205 -2 z m 14 798 l 14 2 l 201 2 l 201 215 l 255 3 l 463 3 l 290 523 l 397 798 l 266 798 l 199 608 l 199 798 z m 25 15 l 25 784 l 189 784 l 189 548 l 273 784 l 377 784 l 277 524 l 446 15 l 267 15 l 192 268 l 192 15 z"},"R":{"x_min":0,"x_max":504,"ha":504,"o":"m 363 771 q 379 757 388 740 q 396 724 396 702 l 396 601 q 396 567 388 543 q 381 519 363 502 q 349 488 331 480 q 325 478 315 474 l 307 473 l 462 -2 l 248 -2 l 197 199 l 197 -2 l 5 -2 l 5 801 l 259 801 q 301 801 322 796 q 342 792 363 771 z m 361 769 q 341 787 318 792 q 296 797 259 797 l 9 797 l 9 2 l 193 2 l 193 230 l 250 2 l 456 2 l 301 477 l 314 478 q 323 481 329 483 q 346 490 361 504 q 392 535 392 601 l 392 702 q 392 738 361 769 z m 352 515 q 342 504 326 496 q 309 487 291 487 l 284 487 l 435 19 l 259 19 l 187 283 l 181 283 l 181 19 l 28 19 l 28 780 l 269 780 q 300 780 318 775 q 337 770 353 752 q 377 725 377 688 l 377 595 q 377 559 374 547 q 370 535 352 515 z m 191 730 l 185 730 l 185 586 l 190 586 q 214 586 231 601 q 253 621 253 661 q 253 698 231 716 q 214 730 191 730 z m 194 718 l 208 717 q 221 714 230 699 q 239 684 239 657 q 239 631 230 616 q 220 601 208 601 l 196 600 z m 198 714 l 198 604 l 207 604 q 219 608 227 620 q 235 632 235 657 q 235 683 226 696 q 218 710 207 714 z"},"T":{"x_min":0,"x_max":426,"ha":426,"o":"m 2 700 l 2 802 l 380 802 l 380 714 l 288 714 l 288 -2 l 95 -2 l 95 700 z m 6 798 l 6 704 l 99 704 l 99 2 l 284 2 l 284 718 l 376 718 l 376 798 z m 20 717 l 20 783 l 362 783 l 362 730 l 268 730 l 268 18 l 116 18 l 116 717 z"},"P":{"x_min":0,"x_max":432,"ha":432,"o":"m 375 768 q 391 753 400 738 q 409 722 409 702 l 409 601 q 409 566 402 542 q 394 518 374 500 q 355 482 332 474 q 310 466 281 466 l 218 466 l 218 -2 l 25 -2 l 25 801 l 273 801 q 309 801 332 795 q 354 789 375 768 z m 373 766 q 353 784 330 790 q 306 797 273 797 l 29 797 l 29 2 l 214 2 l 214 470 l 281 470 q 310 470 331 477 q 352 484 371 502 q 390 520 398 543 q 405 566 405 601 l 405 702 q 405 721 397 736 q 389 750 373 766 z m 277 776 q 308 776 326 771 q 345 766 361 748 q 385 721 385 684 l 385 589 q 385 557 379 542 q 373 526 353 509 q 338 496 324 492 q 309 487 284 487 l 198 487 l 198 19 l 48 19 l 48 776 z m 215 727 l 200 727 l 200 583 l 214 583 q 237 583 252 600 q 268 616 268 658 q 268 695 250 713 q 236 727 215 727 z m 208 717 l 225 718 q 238 718 248 702 q 258 687 258 657 q 258 624 248 608 q 239 593 223 593 l 210 593 z m 212 714 l 213 597 l 224 597 q 241 597 249 617 q 254 630 254 657 q 254 686 245 700 q 236 714 224 714 z"},"M":{"x_min":0,"x_max":630,"ha":630,"o":"m 8 -3 l 8 802 l 199 802 l 302 363 l 401 802 l 588 802 l 588 -2 l 395 -3 l 395 186 l 359 -3 l 185 -3 l 142 195 l 142 -3 z m 12 798 l 12 1 l 138 1 l 138 231 l 189 1 l 355 1 l 395 207 l 399 207 l 399 1 l 584 2 l 584 798 l 405 798 l 302 345 l 195 798 z m 26 16 l 26 784 l 182 784 l 302 284 l 416 784 l 568 784 l 568 16 l 408 16 l 408 312 l 344 16 l 200 16 l 128 320 l 128 16 z"},".":{"x_min":0,"x_max":234,"ha":234,"o":"m 3 1 l 3 440 l 220 440 l 220 1 z m 7 436 l 7 5 l 216 5 l 216 436 z m 25 18 l 25 419 l 197 419 l 197 18 z"},"X":{"x_min":0,"x_max":460,"ha":460,"o":"m 207 802 l 238 700 l 276 801 l 409 802 l 299 478 l 428 -2 l 238 -2 l 190 161 l 133 -1 l -2 -2 l 130 380 l 19 802 z m 205 798 l 25 798 l 134 381 l 4 2 l 129 2 l 190 175 l 240 2 l 422 2 l 295 477 l 403 798 l 280 798 l 238 686 z m 40 787 l 196 787 l 237 649 l 288 787 l 385 787 l 284 478 l 405 15 l 246 15 l 190 207 l 121 15 l 20 15 l 147 382 z"},"*":{"x_min":0,"x_max":246,"ha":246,"o":"m 95 752 l 96 801 l 157 801 l 159 752 l 210 780 l 238 734 l 191 696 l 236 668 l 212 623 l 158 639 l 159 587 l 99 587 l 95 641 l 42 620 l 18 665 l 64 693 l 18 723 l 39 769 z m 100 797 l 99 746 l 41 763 l 24 725 l 72 693 l 24 663 l 44 626 l 99 647 l 103 591 l 155 591 l 154 645 l 210 629 l 230 666 l 184 695 l 232 734 l 208 774 l 155 745 l 153 797 z m 109 726 l 114 784 l 141 784 l 144 726 l 200 754 l 214 729 l 159 696 l 211 662 l 201 639 l 144 664 l 140 603 l 112 603 l 109 669 l 48 640 l 38 660 l 92 691 l 37 728 l 48 750 z"},"Y":{"x_min":0,"x_max":420,"ha":420,"o":"m 97 438 l 1 801 l 197 801 l 224 689 l 255 800 l 393 801 l 288 429 l 288 -3 l 97 -3 z m 7 797 l 101 440 l 101 1 l 284 1 l 284 430 l 387 797 l 259 797 l 224 673 l 194 797 z m 115 439 l 26 784 l 185 784 l 222 637 l 267 784 l 371 784 l 272 432 l 272 16 l 115 16 z"},"!":{"x_min":0,"x_max":246,"ha":246,"o":"m 13 -2 l 13 447 l 204 447 l 204 -2 z m 218 802 l 162 444 l 54 444 l 4 802 z m 158 448 l 214 798 l 8 798 l 58 448 z m 17 443 l 17 2 l 200 2 l 200 443 z m 72 458 l 22 784 l 196 784 l 148 458 z m 32 20 l 32 430 l 186 430 l 186 20 z"},"/":{"x_min":0,"x_max":444,"ha":444,"o":"m -1 -2 l 329 801 l 416 802 l 95 -1 z m 5 2 l 91 2 l 409 798 l 333 798 z m 31 17 l 335 785 l 389 785 l 85 17 z"},"6":{"x_min":0,"x_max":462,"ha":462,"o":"m 187 618 q 187 612 186 604 q 188 604 190 605 q 210 614 251 614 q 301 614 330 574 q 355 539 366 473 l 419 153 q 422 136 422 119 q 422 68 402 39 q 392 24 372 13 q 345 -2 312 -2 l 117 -2 q 84 -2 59 14 q 41 25 29 42 q 8 74 8 123 q 8 138 11 153 l 112 730 q 117 764 146 783 q 176 802 222 802 q 262 802 290 780 q 317 757 323 725 l 342 624 l 250 624 l 244 676 q 244 697 241 704 q 235 718 218 718 q 199 718 195 708 q 191 699 191 678 z m 183 618 l 187 678 q 187 700 192 711 q 196 722 218 722 q 238 722 243 710 q 248 698 248 676 l 254 628 l 338 628 l 319 725 q 313 756 287 777 q 261 798 222 798 q 178 798 150 780 q 121 762 116 730 l 15 153 q 12 136 12 122 q 12 73 33 44 q 45 24 69 13 q 93 2 117 2 l 312 2 q 345 2 370 16 q 388 26 398 41 q 418 69 418 121 q 418 136 415 153 l 362 473 q 351 539 327 572 q 299 610 251 610 q 223 610 208 606 q 194 602 185 600 q 183 600 183 618 z m 261 639 l 257 676 q 257 703 251 715 q 242 733 216 733 q 192 733 184 718 q 176 703 176 678 l 170 585 q 171 580 172 576 q 193 599 246 599 q 287 599 315 562 q 340 530 347 481 l 400 158 q 403 137 403 118 q 403 96 400 80 q 396 65 388 52 q 379 39 362 28 q 337 12 306 12 l 121 12 q 90 12 66 27 q 49 38 40 50 q 32 63 28 82 q 24 101 24 119 q 24 138 27 158 l 124 716 q 135 784 218 784 q 260 784 283 764 q 306 744 310 713 l 321 639 z m 216 537 q 193 537 176 520 q 159 503 159 480 q 159 456 177 440 q 195 424 219 424 q 242 424 258 440 q 273 457 273 480 q 273 503 256 520 q 239 537 216 537 z m 217 525 q 235 525 248 512 q 262 498 262 480 q 262 462 249 449 q 236 436 217 436 q 200 436 186 449 q 172 462 172 480 q 172 498 186 512 q 199 525 217 525 z m 217 521 q 200 521 188 509 q 176 497 176 480 q 176 464 188 452 q 200 440 217 440 q 234 440 246 451 q 258 462 258 480 q 258 497 246 509 q 234 521 217 521 z"},"2":{"x_min":0,"x_max":432,"ha":432,"o":"m 18 440 q 18 482 134 584 q 203 644 226 680 q 229 685 229 691 q 229 714 205 714 q 192 714 185 705 q 178 696 178 685 l 174 621 l 88 621 l 93 700 q 93 740 133 770 q 173 800 226 800 q 295 800 332 751 q 362 711 362 658 q 362 637 356 623 l 305 501 q 297 481 297 473 q 297 468 300 462 q 308 441 333 441 l 402 441 l 402 0 l 17 0 z m 22 440 l 21 4 l 398 4 l 398 437 l 333 437 q 307 437 296 460 q 293 468 293 474 q 293 480 294 484 q 300 497 301 503 l 352 625 q 358 639 358 659 q 358 709 329 748 q 293 796 226 796 q 175 796 136 767 q 97 738 97 700 l 92 625 l 170 625 l 174 685 q 174 718 205 718 q 234 718 234 691 q 234 683 230 678 q 206 642 138 582 q 22 479 22 440 z m 37 18 l 37 441 q 37 467 95 523 q 236 660 244 678 q 248 690 248 695 q 248 711 236 722 q 223 732 205 732 q 180 732 172 714 q 163 697 163 678 l 161 636 l 102 636 l 106 691 q 106 723 135 751 q 169 784 224 784 q 275 784 309 747 q 343 710 343 661 q 343 641 335 620 l 289 502 q 286 494 285 490 q 281 478 281 469 q 281 456 289 446 q 297 435 309 430 q 321 426 332 426 l 383 426 l 383 18 z"},"9":{"x_min":0,"x_max":468,"ha":468,"o":"m 107 691 q 107 741 140 771 q 173 801 225 801 q 274 801 304 772 q 328 749 332 720 l 420 153 q 422 145 422 137 q 422 129 422 122 q 422 71 403 42 q 390 23 367 10 q 344 -2 309 -2 l 114 -2 q 80 -2 55 13 q 41 21 25 40 q 3 70 3 100 q 3 112 6 129 q 9 146 10 153 l 76 544 l 187 544 l 187 496 q 187 467 190 460 q 197 444 221 444 q 241 444 249 462 q 254 474 254 493 l 254 571 q 254 580 239 580 q 235 580 222 579 q 209 578 202 578 q 154 586 130 616 q 107 647 107 691 z m 111 691 q 111 648 133 619 q 155 590 202 582 q 206 581 214 581 q 220 581 230 582 q 241 583 244 583 q 258 583 258 571 l 258 493 q 258 472 253 460 q 245 440 221 440 q 190 440 186 458 q 183 477 183 496 l 183 540 l 80 540 l 14 153 q 10 133 8 122 q 7 111 7 99 q 7 71 29 42 q 40 27 57 17 q 83 2 114 2 l 309 2 q 341 2 365 15 q 389 28 399 44 q 418 72 418 122 q 418 129 418 133 q 418 139 416 153 l 328 720 q 324 747 302 768 q 272 797 225 797 q 176 797 144 768 q 111 740 111 691 z m 268 586 q 268 596 259 596 q 257 596 244 594 q 231 592 221 592 q 183 592 156 615 q 124 642 124 690 q 124 731 151 758 q 178 784 226 784 q 265 784 289 762 q 313 739 319 702 l 402 159 q 404 139 405 130 q 406 121 406 113 q 406 92 402 78 q 397 63 383 46 q 369 28 349 22 q 329 15 298 15 l 142 15 q 132 15 128 15 q 99 15 80 20 q 61 25 46 42 q 20 71 20 101 q 20 108 21 112 l 90 528 l 172 528 l 172 477 q 172 429 225 429 q 268 429 268 484 z m 217 737 q 198 737 186 723 q 174 709 174 690 q 174 672 188 659 q 202 646 222 646 q 242 646 254 660 q 265 673 265 693 q 265 711 251 724 q 237 737 217 737 z m 219 726 q 233 726 244 716 q 255 706 255 692 q 255 678 245 668 q 235 657 221 657 q 206 657 196 666 q 185 676 185 690 q 185 704 195 715 q 205 726 219 726 z m 219 722 q 206 722 198 712 q 189 703 189 690 q 189 677 198 669 q 207 661 221 661 q 233 661 242 670 q 251 679 251 692 q 251 704 242 713 q 232 722 219 722 z"}," ":{"x_min":0,"x_max":450,"ha":450,"o":""},"I":{"x_min":0,"x_max":240,"ha":240,"o":"m 5 -2 l 5 802 l 195 802 l 195 -2 z m 9 798 l 9 2 l 191 2 l 191 798 z m 25 14 l 25 784 l 175 784 l 175 14 z"},"H":{"x_min":0,"x_max":480,"ha":480,"o":"m 11 -4 l 11 801 l 198 801 l 198 640 l 244 640 l 244 802 l 429 802 l 429 -4 l 243 -4 l 243 548 l 200 548 l 200 -4 z m 15 797 l 15 0 l 196 0 l 196 552 l 247 552 l 247 0 l 425 0 l 425 798 l 248 798 l 248 636 l 194 636 l 194 797 z m 27 14 l 27 783 l 182 783 l 182 623 l 260 623 l 260 782 l 414 782 l 414 14 l 259 14 l 259 564 l 182 564 l 182 14 z"},"4":{"x_min":0,"x_max":444,"ha":444,"o":"m 348 802 l 348 580 l 409 580 l 409 449 l 346 449 l 346 -1 l 154 -1 l 155 448 l 17 448 l 17 574 l 158 801 z m 344 798 l 161 798 l 21 573 l 21 452 l 159 452 l 158 3 l 342 3 l 342 453 l 405 453 l 405 576 l 344 576 z m 171 787 l 333 787 l 333 563 l 391 563 l 391 464 l 330 464 l 330 15 l 170 15 l 170 464 l 34 464 l 34 565 z m 173 663 l 112 563 l 173 563 z m 125 569 l 167 643 l 167 569 z m 163 627 l 133 573 l 163 573 z"},"D":{"x_min":0,"x_max":468,"ha":468,"o":"m 339 711 l 426 164 q 429 143 429 123 q 429 99 424 78 q 419 57 407 42 q 395 26 373 13 q 343 -4 308 -4 l 8 -4 l 8 801 l 220 801 q 253 801 272 796 q 292 790 301 781 q 318 767 328 748 q 339 728 339 711 z m 335 711 q 335 728 326 746 q 316 764 299 778 q 288 788 266 792 q 244 797 220 797 l 12 797 l 12 0 l 308 0 q 343 0 371 16 q 392 28 403 43 q 414 58 420 78 q 425 97 425 123 q 425 143 422 164 z m 290 765 q 302 755 310 740 q 319 726 323 702 l 404 171 q 406 148 407 138 q 408 128 408 120 q 408 99 405 86 q 402 73 392 60 q 381 46 361 34 q 333 18 301 18 l 24 18 l 24 784 l 219 784 q 246 784 264 778 q 282 772 290 765 z m 249 483 l 249 678 q 249 690 244 704 q 240 719 231 727 q 222 735 215 736 q 208 738 189 738 l 179 738 l 179 423 l 189 423 q 203 423 214 428 q 226 432 232 438 q 249 455 249 483 z m 234 677 l 234 488 q 234 472 232 464 q 229 455 220 446 q 216 439 213 436 q 208 430 198 430 l 186 430 l 184 733 l 198 734 q 207 734 212 729 q 217 724 219 722 q 226 713 230 704 q 234 694 234 677 z m 230 677 q 230 692 226 702 q 222 711 214 720 q 206 730 197 730 l 188 729 l 189 434 l 197 434 q 206 434 210 440 q 215 445 218 448 q 230 463 230 488 z"},"0":{"x_min":0,"x_max":456,"ha":456,"o":"m 328 727 l 423 153 q 425 137 425 128 q 425 103 418 80 q 411 58 400 42 q 388 26 371 15 q 344 -2 312 -2 l 117 -2 q 84 -2 59 14 q 41 25 29 42 q 8 74 8 123 q 8 138 11 153 l 112 730 q 117 763 149 782 q 181 801 225 801 q 269 801 296 780 q 323 759 328 727 z m 324 727 q 319 757 294 777 q 268 797 225 797 q 181 797 151 779 q 121 761 116 730 l 15 153 q 12 136 12 122 q 12 73 33 44 q 45 24 69 13 q 93 2 117 2 l 312 2 q 344 2 366 16 q 387 29 398 45 q 408 61 414 82 q 421 104 421 129 q 421 135 421 141 q 419 149 419 153 z m 314 711 l 404 165 q 407 144 407 125 q 407 103 404 88 q 400 72 392 59 q 383 46 366 35 q 341 19 310 19 l 125 19 q 94 19 70 34 q 53 45 44 58 q 35 71 31 88 q 27 106 27 125 q 27 135 28 145 q 28 146 31 165 l 128 714 q 139 781 222 781 q 262 781 286 761 q 309 741 314 711 z m 274 484 l 260 672 q 260 708 250 720 q 241 731 220 731 q 196 731 188 716 q 180 701 180 676 l 162 484 q 160 458 175 440 q 190 422 221 422 q 252 422 265 446 q 274 462 274 484 z m 262 489 q 262 459 252 446 q 242 433 220 433 q 193 433 184 448 q 174 464 174 489 l 188 669 q 188 691 194 706 q 199 721 220 721 q 241 721 246 706 q 251 692 251 667 z m 258 489 l 247 667 q 247 692 243 704 q 239 717 220 717 q 202 717 197 704 q 192 690 192 669 l 178 489 q 178 456 188 446 q 199 437 220 437 q 240 437 249 448 q 258 460 258 489 z"},"F":{"x_min":0,"x_max":300,"ha":300,"o":"m 196 -1 l 10 -1 l 10 802 l 261 802 l 261 710 l 196 710 l 196 568 l 255 568 l 255 485 l 196 485 z m 14 3 l 192 3 l 192 489 l 251 489 l 251 564 l 192 564 l 192 714 l 257 714 l 257 798 l 14 798 z m 179 15 l 29 15 l 29 782 l 244 782 l 244 727 l 179 727 l 179 551 l 241 551 l 241 501 l 179 501 z"},"U":{"x_min":0,"x_max":456,"ha":456,"o":"m 304 526 l 304 801 l 415 801 l 415 150 q 415 127 415 117 q 415 86 410 68 q 405 49 388 31 q 371 13 348 5 q 324 -3 297 -3 l 142 -3 q 105 -3 82 2 q 60 7 40 27 q 7 57 7 101 l 7 802 l 194 802 l 194 515 q 194 475 208 458 q 223 442 250 442 q 295 442 302 481 q 304 493 304 526 z m 308 797 l 308 526 q 308 516 308 511 q 308 476 300 461 q 288 438 250 438 q 214 438 200 465 q 190 484 190 515 l 190 798 l 11 798 l 11 101 q 11 60 42 29 q 62 11 84 6 q 105 1 142 1 l 297 1 q 326 1 346 8 q 367 15 384 32 q 402 50 406 69 q 411 88 411 117 q 411 138 411 150 l 411 797 z m 322 525 l 322 785 l 397 785 l 397 159 q 397 138 397 128 q 397 99 393 82 q 389 65 374 46 q 360 28 340 22 q 320 15 289 15 l 146 15 q 136 15 132 15 q 103 15 84 20 q 65 25 50 42 q 25 70 25 112 l 25 786 l 175 786 l 175 510 q 175 477 187 457 q 206 425 253 425 q 295 425 311 457 q 322 479 322 525 z"},"N":{"x_min":0,"x_max":450,"ha":450,"o":"m 215 -3 l 138 262 l 138 -3 l 8 -3 l 8 801 l 193 801 l 267 535 l 267 801 l 400 801 l 400 -3 z m 217 1 l 396 1 l 396 797 l 271 797 l 271 503 l 191 797 l 12 797 l 12 1 l 134 1 l 134 292 z m 382 16 l 228 16 l 122 370 l 122 16 l 26 16 l 26 784 l 182 784 l 282 418 l 282 784 l 382 784 z"},"G":{"x_min":0,"x_max":492,"ha":492,"o":"m 202 13 l 118 13 q 87 13 63 28 q 46 39 37 52 q 28 65 24 82 q 20 100 20 119 q 20 129 21 139 q 21 140 24 159 l 122 714 q 133 784 216 784 q 250 784 277 762 q 304 740 308 711 l 326 568 l 262 568 l 254 677 q 254 702 246 716 q 235 735 209 735 q 192 735 181 723 q 170 711 170 695 l 156 484 q 156 457 172 440 q 189 422 221 422 q 245 422 260 442 q 272 458 272 476 l 272 519 l 231 519 l 231 539 l 378 539 l 378 519 l 340 519 l 342 488 l 417 13 l 337 13 l 317 58 q 313 54 310 50 q 301 36 288 28 q 276 19 263 16 q 250 12 233 12 q 213 13 202 13 z m 250 553 l 246 553 l 243 659 q 243 682 239 694 q 231 717 211 717 q 197 717 191 704 q 185 690 185 671 l 173 492 q 173 458 184 449 q 195 440 219 440 q 237 440 245 452 q 253 465 253 483 l 253 504 l 210 504 l 210 555 l 395 555 l 395 504 l 358 504 l 360 474 l 437 -1 l 326 -1 l 315 33 q 315 30 300 18 q 285 5 268 0 q 251 -4 232 -4 q 211 -3 201 -3 l 114 -3 q 81 -3 52 13 q 30 25 20 40 q 1 68 1 120 q 1 137 4 155 l 105 730 q 110 760 141 781 q 172 802 216 802 q 254 802 286 780 q 317 757 321 727 l 346 552 l 342 552 l 317 727 q 313 755 282 776 q 252 798 216 798 q 176 798 145 778 q 114 757 109 730 l 8 155 q 5 137 5 119 q 5 69 24 42 q 32 29 54 17 q 83 1 114 1 l 201 1 q 223 0 234 0 q 256 0 270 4 q 283 7 297 20 q 306 27 310 34 q 314 41 317 38 l 328 3 l 433 3 l 356 474 l 354 508 l 391 508 l 391 551 l 214 551 l 214 508 l 257 508 l 257 483 q 257 465 250 453 q 240 436 219 436 q 188 436 178 450 q 169 465 169 492 l 181 671 q 181 699 189 710 q 197 721 211 721 q 234 721 242 696 q 247 681 247 659 z"},"1":{"x_min":0,"x_max":318,"ha":318,"o":"m 4 642 l 4 746 l 263 813 l 263 -3 l 77 -3 l 77 662 z m 8 744 l 8 648 l 81 668 l 81 1 l 259 1 l 259 807 z m 17 664 l 17 732 l 249 792 l 249 14 l 87 14 l 92 686 z"},"5":{"x_min":0,"x_max":426,"ha":426,"o":"m 383 801 l 383 715 l 227 715 l 227 628 q 227 623 239 621 q 284 613 336 576 q 370 552 386 517 q 402 482 402 438 l 402 148 q 402 126 402 116 q 402 89 397 70 q 392 51 376 34 q 345 -2 303 -2 l 24 -2 l 24 439 l 125 439 q 161 439 172 448 q 183 456 183 479 q 183 518 142 518 q 122 518 83 487 q 70 477 48 455 l 48 801 z m 379 719 l 379 797 l 52 797 l 52 463 q 67 480 90 497 q 123 522 142 522 q 187 522 187 479 q 187 455 174 445 q 162 435 125 435 l 28 435 l 28 2 l 303 2 q 324 2 341 10 q 358 19 374 36 q 389 52 394 70 q 398 89 398 116 q 398 137 398 148 l 398 438 q 398 483 382 516 q 367 549 334 572 q 296 600 263 610 q 223 623 223 628 l 223 719 z m 370 730 l 214 730 l 214 617 q 214 614 250 602 q 287 591 324 565 q 387 521 387 436 l 387 154 q 387 142 387 130 q 387 119 388 108 q 388 89 384 74 q 379 58 366 44 q 335 12 289 12 l 43 12 l 43 426 l 133 426 q 168 426 183 438 q 198 451 198 476 q 198 501 184 517 q 170 533 141 533 q 121 533 89 509 q 79 501 61 485 l 61 785 l 370 785 z"}}}
